HIERARCHY
ROOT root
{
	OFFSET 0.000000 0.000000 0.000000
	CHANNELS 6 Xposition Yposition Zposition Zrotation Yrotation Xrotation
	JOINT lhip
	{
		OFFSET 0.058581 -0.082280 -0.017664
		CHANNELS 3 Zrotation Yrotation Xrotation
		JOINT lknee
		{
			OFFSET 0.043451 -0.386469 0.008037
			CHANNELS 3 Zrotation Yrotation Xrotation
			JOINT lankle
			{
				OFFSET -0.014790 -0.426874 -0.037428
				CHANNELS 3 Zrotation Yrotation Xrotation
				JOINT ltoe
				{
					OFFSET 0.041054 -0.060286 0.122042
					CHANNELS 3 Zrotation Yrotation Xrotation
					End Site
					{
						OFFSET 0.000000 0.000000 0.000000
					}
				}
			}
		}
	}
	JOINT rhip
	{
		OFFSET -0.060310 -0.090513 -0.013543
		CHANNELS 3 Zrotation Yrotation Xrotation
		JOINT rknee
		{
			OFFSET -0.043257 -0.383688 -0.004843
			CHANNELS 3 Zrotation Yrotation Xrotation
			JOINT rankle
			{
				OFFSET 0.019056 -0.420046 -0.034562
				CHANNELS 3 Zrotation Yrotation Xrotation
				JOINT rtoe
				{
					OFFSET -0.034840 -0.062106 0.130323
					CHANNELS 3 Zrotation Yrotation Xrotation
					End Site
					{
						OFFSET 0.000000 0.000000 0.000000
					}
				}
			}
		}
	}
	JOINT lowerback
	{
		OFFSET 0.004439 0.124404 -0.038385
		CHANNELS 3 Zrotation Yrotation Xrotation
		JOINT upperback
		{
			OFFSET 0.004488 0.137956 0.026820
			CHANNELS 3 Zrotation Yrotation Xrotation
			JOINT chest
			{
				OFFSET -0.002265 0.056032 0.002855
				CHANNELS 3 Zrotation Yrotation Xrotation
				JOINT lowerneck
				{
					OFFSET -0.013390 0.211636 -0.033468
					CHANNELS 3 Zrotation Yrotation Xrotation
					JOINT upperneck
					{
						OFFSET 0.010113 0.088937 0.050410
						CHANNELS 3 Zrotation Yrotation Xrotation
						End Site
						{
							OFFSET 0.000000 0.000000 0.000000
						}
					}
				}
				JOINT lclavicle
				{
					OFFSET 0.071702 0.114000 -0.018898
					CHANNELS 3 Zrotation Yrotation Xrotation
					JOINT lshoulder
					{
						OFFSET 0.122921 0.045205 -0.019046
						CHANNELS 3 Zrotation Yrotation Xrotation
						JOINT lelbow
						{
							OFFSET 0.255332 -0.015649 -0.022946
							CHANNELS 3 Zrotation Yrotation Xrotation
							JOINT lwrist
							{
								OFFSET 0.265709 0.012698 -0.007375
								CHANNELS 3 Zrotation Yrotation Xrotation
								End Site
								{
									OFFSET 0.000000 0.000000 0.000000
								}
							}
						}
					}
				}
				JOINT rclavicle
				{
					OFFSET -0.082954 0.112472 -0.023707
					CHANNELS 3 Zrotation Yrotation Xrotation
					JOINT rshoulder
					{
						OFFSET -0.113228 0.046853 -0.008472
						CHANNELS 3 Zrotation Yrotation Xrotation
						JOINT relbow
						{
							OFFSET -0.260127 -0.014369 -0.031269
							CHANNELS 3 Zrotation Yrotation Xrotation
							JOINT rwrist
							{
								OFFSET -0.269108 0.006794 -0.006027
								CHANNELS 3 Zrotation Yrotation Xrotation
								End Site
								{
									OFFSET 0.000000 0.000000 0.000000
								}
							}
						}
					}
				}
			}
		}
	}
}
MOTION
Frames: 17
Frame Time: 0.033333
0.268257 0.262116 1.001461 88.552668 1.680887 79.844435 5.969767 0.178882 -19.821249 -5.005095 2.714202 21.705227 -4.874438 7.387218 -9.141730 0.000000 -0.000000 0.000000 -3.607248 -0.550761 -27.030454 1.804001 -8.523623 28.094964 14.646439 0.460465 11.089426 0.000000 -0.000000 0.000000 -2.021002 2.278132 20.189447 2.239544 -1.944631 2.333949 1.180611 -1.203648 0.154764 0.397437 0.917883 17.141076 3.715680 -2.175161 3.726239 -20.529230 4.680825 10.393291 -67.632900 3.302240 3.080485 3.979309 -7.531774 14.588275 -14.794928 -5.709254 -3.472287 19.545445 -1.615876 9.002287 65.266621 3.900691 9.043049 -11.247445 21.211076 9.557734 7.575380 1.045061 -5.273998 
0.323802 0.260297 0.927709 88.756613 1.839260 76.385770 6.248576 0.029554 -24.749542 -6.182540 2.233336 39.753726 1.132211 8.997767 -7.766231 0.000000 -0.000000 0.000000 -2.092823 0.878607 -29.117720 2.751180 -4.721477 43.819197 2.990767 -2.204664 -3.817038 0.000000 -0.000000 0.000000 -2.310562 2.184174 23.001509 2.804587 -0.966654 -1.317253 0.921383 -1.388831 2.176174 2.091253 1.140916 11.145178 2.223715 -3.711626 8.772397 -22.336315 2.611288 8.417615 -63.958776 0.369887 4.064758 3.987994 -7.605057 14.338158 -10.406236 -4.393883 -5.027164 22.303158 1.033196 7.127514 62.369811 5.439741 9.505479 -12.173891 17.437433 7.697023 5.560879 1.303367 -4.144426 
0.365043 0.259818 0.877582 89.791434 2.345767 72.560250 7.080464 -2.247148 -27.641507 -8.081360 2.313382 55.538368 2.670962 12.662418 -13.921706 0.000000 -0.000000 0.000000 -2.041585 3.810887 -31.714324 2.543038 -5.655092 59.658145 1.244344 -6.657317 -12.309600 0.000000 -0.000000 0.000000 -2.473418 2.077540 27.103900 3.861288 -0.306661 -1.765325 0.865192 -1.354471 2.608939 3.241044 0.998590 5.387728 0.661721 -5.352128 11.236508 -25.097910 -1.368362 5.872743 -59.516025 -5.630295 8.853273 4.714569 -9.488994 8.884302 -1.425104 -1.758520 -7.483832 25.546461 4.550984 4.554297 57.881855 9.384225 12.235070 -14.099469 14.985267 2.978171 4.190532 1.138799 -2.137195 
0.403051 0.260012 0.853223 90.625788 3.042382 69.815204 5.743203 -0.435115 -25.636852 -7.977994 -0.368560 63.094462 4.422901 13.983352 -20.827816 0.000000 -0.000000 0.000000 -0.834538 2.208271 -29.419117 2.784717 -4.921909 66.422339 -0.304329 -7.883734 -19.341307 0.000000 -0.000000 0.000000 -2.007059 1.801249 29.368329 4.063287 -0.704432 -3.183265 1.296419 -0.924377 2.175697 2.575825 -0.331128 6.958281 0.845227 -5.494349 12.353056 -23.735480 -6.490364 5.753186 -58.861589 -9.185218 8.852981 4.379608 -14.483726 6.386677 2.719291 -2.390596 -12.221867 23.881531 9.053265 3.910837 56.681948 10.793658 11.332888 -14.616310 18.379449 1.824930 2.492715 2.249999 -2.172083 
0.431959 0.259789 0.842651 91.714435 2.906736 70.816674 6.015270 -1.364394 -26.629732 -8.118426 1.067355 66.947276 4.486903 14.047096 -24.370416 0.000000 -0.000000 0.000000 -1.326436 1.655803 -29.701607 2.545990 -5.431963 69.782513 -0.385415 -8.255435 -23.501763 0.000000 -0.000000 0.000000 -2.702235 2.043384 27.752919 4.488775 -1.346957 -4.348424 1.376699 -1.103367 2.454214 3.197313 -0.336099 7.179190 0.232285 -6.401398 14.352591 -21.933448 -8.279355 4.725102 -58.483546 -12.513423 9.990218 4.493919 -19.017211 5.544422 4.151864 -4.594624 -15.089422 22.704247 10.299930 2.235586 55.453446 13.109692 12.196948 -15.591076 23.115938 2.093128 2.253471 3.362396 -2.460861 
0.452462 0.258221 0.848068 91.699446 2.931228 72.124045 7.053673 -1.242711 -26.244547 -8.102432 2.290986 66.231057 3.930729 13.429230 -24.665200 0.000000 -0.000000 0.000000 -1.540313 2.233720 -29.045848 2.578492 -6.266171 69.068253 -0.134449 -8.119432 -24.323957 0.000000 -0.000000 0.000000 -2.999993 2.131367 26.832996 4.551980 -1.191943 -3.982612 1.225997 -0.859485 2.248207 3.817177 -0.260394 5.831112 -0.105368 -7.059260 14.736176 -21.794583 -8.857515 3.464887 -57.585978 -14.555795 10.254710 5.576838 -23.405347 3.128985 6.225450 -4.860879 -15.338967 22.500005 11.262380 0.810570 53.949819 15.601257 12.486141 -17.622173 27.040532 -0.018386 1.162583 3.847021 -2.332915 
0.468295 0.257123 0.867778 90.958284 2.681745 73.137890 7.004929 -0.157203 -24.115376 -7.332841 2.471958 62.935282 3.203146 12.705006 -23.198104 0.000000 -0.000000 0.000000 -1.004465 2.116219 -26.813891 2.490635 -5.311486 65.350093 0.220848 -7.464412 -23.366060 0.000000 -0.000000 0.000000 -3.096642 2.421796 26.787790 4.022236 -0.832110 -3.751750 1.209441 -0.401027 2.057197 3.562398 -0.659467 5.890659 0.389009 -6.975107 14.571138 -21.600258 -9.462965 3.032713 -57.613801 -15.362048 10.794198 5.923040 -25.180214 0.415832 8.926329 -6.583835 -19.502557 21.775569 12.302662 0.095502 53.304556 17.506386 12.668162 -18.630281 28.946081 -1.385263 0.042917 4.562845 -2.372733 
0.478246 0.256197 0.894922 91.329936 2.556912 75.220740 6.520969 -0.304768 -22.974450 -6.679705 2.040580 57.875874 2.424002 11.699083 -19.836269 0.000000 -0.000000 0.000000 -0.879297 1.432130 -24.885900 2.289038 -4.831904 59.406094 0.678226 -6.736187 -21.046226 0.000000 -0.000000 0.000000 -3.054591 2.498230 26.284928 3.602377 -1.197106 -3.742045 1.237055 -0.493806 1.900760 3.267376 -0.894493 6.890454 0.609920 -6.447830 14.508278 -21.256213 -9.291903 3.022464 -58.310007 -14.957749 11.737385 5.503057 -25.211860 1.045862 9.397266 -7.710808 -20.484432 20.911877 12.759647 -0.600887 53.435744 19.060410 13.357637 -18.451761 29.697776 -1.327349 -0.124109 4.785516 -2.538798 
0.485696 0.254663 0.924670 91.851906 2.597831 78.140465 6.481165 -0.758025 -21.888538 -6.464926 1.184525 50.482809 1.751526 10.707385 -16.183322 0.000000 -0.000000 0.000000 -0.797129 0.948320 -23.364814 2.270167 -4.895420 52.074862 1.213540 -6.046767 -17.850410 0.000000 -0.000000 0.000000 -3.047101 2.557723 24.712402 3.471737 -1.632281 -3.030624 1.204638 -0.706424 1.597701 3.403964 -0.749787 7.708559 0.692945 -6.277128 14.301402 -21.669939 -8.166200 3.263523 -58.691184 -13.724199 12.209882 4.927249 -24.781448 3.166261 8.132408 -7.149333 -17.029830 21.071232 12.358203 -0.783038 53.680164 20.239343 13.766287 -18.780703 30.736558 -1.663328 0.044254 4.609469 -2.572486 
0.492540 0.253094 0.953559 91.828679 2.516974 81.153900 6.476356 -1.037229 -19.390482 -6.085069 0.585527 40.734266 1.206608 10.233342 -13.394121 0.000000 -0.000000 0.000000 -0.913504 0.759472 -21.936427 2.457274 -5.182634 44.336999 2.062404 -5.092070 -14.269832 0.000000 -0.000000 0.000000 -3.109489 2.751476 22.944647 3.252878 -1.650876 -2.181312 1.169199 -0.751008 1.282735 3.575659 -0.743330 8.191861 1.012644 -6.412821 13.579159 -22.145893 -6.697307 3.781039 -59.234021 -12.342263 12.518419 4.592203 -23.704715 3.479806 7.030562 -7.458537 -16.504664 21.599915 11.369075 -0.498062 54.536657 20.781973 14.172832 -19.991893 32.067754 -3.081279 -0.289231 4.718290 -3.186784 
0.498715 0.252229 0.977654 91.842269 2.552336 84.159587 6.200854 -0.838882 -16.889463 -5.228476 0.460288 31.314445 0.859804 9.569910 -10.967084 0.000000 -0.000000 0.000000 -1.006208 0.295024 -20.910205 2.666781 -5.494264 37.116091 2.931680 -3.929464 -10.722745 0.000000 -0.000000 0.000000 -2.873108 2.848089 21.224908 2.982102 -1.631031 -1.619503 1.192285 -0.778609 1.016345 3.522285 -0.942024 8.411389 1.338807 -6.498077 12.776162 -22.362530 -5.450917 4.399493 -60.018022 -10.850729 12.705548 4.213781 -21.598420 3.462262 6.005028 -8.275859 -17.060825 21.850173 10.364934 -0.037387 55.746298 20.684256 14.642384 -20.900330 33.129073 -4.211155 -0.607030 5.069762 -4.054331 
0.505030 0.251869 0.995002 92.345630 2.703943 86.789940 6.025704 -0.406128 -15.570025 -4.601268 0.606447 24.259999 0.337320 8.655865 -8.137524 0.000000 -0.000000 0.000000 -0.856954 -0.195249 -19.747702 2.740955 -5.594594 30.605258 3.523610 -3.236067 -7.790233 0.000000 -0.000000 0.000000 -2.454851 2.818611 19.650139 2.903713 -1.872676 -0.956105 1.233633 -0.924540 0.846191 3.442110 -1.044747 8.139358 1.443133 -6.607287 12.348660 -22.718384 -4.528478 4.937883 -60.392018 -9.237235 12.660754 3.679609 -19.109131 4.626590 4.596180 -8.478294 -14.900482 22.239149 9.723352 0.392420 56.428488 20.307125 15.033402 -20.730579 33.547015 -3.985092 -0.607813 5.287423 -4.136125 
0.512974 0.251989 1.006084 93.193091 2.725738 88.489240 5.927930 0.027699 -14.086169 -4.454614 0.214354 18.796760 -0.666188 7.725527 -5.825549 0.000000 -0.000000 0.000000 -0.757711 -0.722257 -17.758747 2.854612 -5.804226 24.651560 3.680869 -3.209132 -5.801623 0.000000 -0.000000 0.000000 -2.066960 2.717618 18.611458 2.880733 -2.239122 -0.111619 1.339786 -1.093795 0.603915 3.341366 -1.123789 7.929249 1.479367 -6.756051 12.024786 -23.307972 -3.992259 5.655264 -60.339510 -7.670713 12.317241 3.234595 -16.815369 5.767324 3.191279 -8.342328 -12.365585 22.863979 9.570544 1.047767 56.541603 19.812602 15.052972 -19.727930 33.042860 -2.938016 -0.458663 5.304270 -3.661823 
0.522965 0.252684 1.011784 93.752205 2.636408 89.504858 5.653112 1.431054 -12.254374 -4.860642 -1.847109 14.330661 -0.722549 7.894941 -3.923008 0.000000 -0.000000 0.000000 -0.634487 -1.726392 -15.392238 3.921752 -3.624721 19.547403 2.662902 -5.290116 -4.989499 0.000000 -0.000000 0.000000 -1.777502 2.529485 17.795924 2.886131 -2.187624 0.626159 1.455224 -1.325150 0.005394 2.465117 -1.810372 8.664263 2.038453 -6.099665 11.654907 -23.964643 -3.024840 7.856391 -60.199773 -6.815293 11.476467 2.829604 -15.389696 12.327615 4.001003 -8.147231 -18.534652 23.597199 9.426172 3.313550 56.506661 19.903832 15.246013 -18.925794 31.628566 0.673769 -1.920121 5.266497 -6.502522 
0.532046 0.254161 1.012989 93.920293 2.464837 90.395697 5.606520 2.010725 -11.332369 -5.043575 -1.857402 11.810978 -0.957743 7.408001 -3.166437 0.000000 -0.000000 0.000000 -0.831064 -1.979017 -14.182042 3.984063 -3.330638 16.763788 2.715490 -5.261569 -4.577005 0.000000 -0.000000 0.000000 -1.522466 2.445761 17.176246 2.825186 -2.013013 0.624332 1.502757 -1.199411 0.028224 2.331493 -2.047033 8.244029 1.856944 -6.303120 12.052086 -24.120316 -2.103560 7.945041 -60.410550 -5.673469 11.104424 2.673498 -13.447244 13.052933 2.612139 -8.124647 -16.715518 24.102972 9.095987 3.579507 56.833982 19.060537 15.433437 -17.269711 29.491336 2.243268 -0.984148 5.027040 -5.137551 
0.540290 0.256062 1.012827 93.853928 2.212105 90.927854 5.447311 2.187374 -10.685509 -5.197660 -1.671198 10.460132 -1.104639 7.338966 -2.815628 0.000000 -0.000000 0.000000 -1.163788 -2.093026 -13.625265 4.019766 -2.975438 15.654141 2.862523 -5.306835 -4.377239 0.000000 -0.000000 0.000000 -1.287165 2.430090 16.833314 2.770343 -1.721375 0.665036 1.464678 -1.045166 0.097349 2.255663 -2.176663 7.599550 1.566302 -6.591343 12.302368 -24.237297 -1.053832 7.815241 -60.496731 -4.866887 10.757331 2.659801 -12.507395 13.499368 1.446790 -7.975461 -15.166377 24.701966 8.574292 3.792047 57.160743 18.464486 15.552477 -15.823096 27.079991 3.427455 -0.043162 4.538191 -3.563157 
0.548031 0.258052 1.013489 93.650033 1.991255 91.097947 5.134425 2.273584 -9.817831 -5.180673 -1.691816 9.390667 -1.140149 7.589304 -2.568528 0.000000 -0.000000 0.000000 -1.430185 -2.138007 -13.008875 3.946189 -2.702547 15.041650 3.018086 -5.274509 -4.327433 0.000000 -0.000000 0.000000 -1.000633 2.430531 16.649826 2.724077 -1.386356 0.875241 1.433890 -0.865680 0.050509 2.002922 -2.352621 7.339194 1.490061 -6.697297 12.105255 -24.367384 -0.281517 7.904625 -60.587992 -4.261935 10.516451 2.606914 -12.650317 13.261218 0.913863 -8.004865 -15.058877 25.088333 8.193318 4.086034 57.659547 17.701212 15.558696 -14.877560 24.597334 3.879286 0.700511 4.023487 -2.270444 
